<svg width="512" height="512" viewBox="0 0 512 512" fill="none" xmlns="http://www.w3.org/2000/svg">
<rect width="512" height="512" fill="#1C1C1C"/>
<g clip-path="url(#clip0_121_7)">
<path fill-rule="evenodd" clip-rule="evenodd" d="M148.5 149H186.5V277.289C205.036 265.805 229.165 260 257.5 260C284.741 260 300.379 253.414 309.447 244.184C318.575 234.893 324.5 219.416 324.5 194V149H362.5V194C362.5 224.584 355.425 251.607 336.553 270.816C317.621 290.086 290.259 298 257.5 298C230.273 298 212.42 304.484 201.793 312.897C191.628 320.944 186.5 331.935 186.5 345.5V402.131H148.5V149Z" fill="white"/>
<mask id="mask0_121_7" style="mask-type:alpha" maskUnits="userSpaceOnUse" x="194" y="276" width="168" height="126">
<path d="M342 276.207C320.474 297.5 290.485 305.707 256.5 305.707C230.519 305.707 214.742 311.902 206.069 318.768C198.063 325.107 194 333.58 194 344.707V401.838H362V276L342 276.207Z" fill="black"/>
</mask>
<g mask="url(#mask0_121_7)">
<path fill-rule="evenodd" clip-rule="evenodd" d="M262.631 342.386C253.529 334.494 243.477 320.204 243 303.5L281 303C281.023 303.796 281.346 308.318 287.525 313.676C292.487 317.978 298.614 321.949 306.304 326.931C308.512 328.362 310.848 329.876 313.323 331.506C332.619 344.21 362 364.692 362 402H324C324 387.308 313.381 377.04 292.427 363.244C290.689 362.1 288.846 360.909 286.939 359.677C278.937 354.508 269.814 348.615 262.631 342.386Z" fill="white" fill-opacity="0.6"/>
</g>
</g>
<defs>
<clipPath id="clip0_121_7">
<rect width="214" height="253.131" fill="white" transform="translate(149 149)"/>
</clipPath>
</defs>
</svg>
