<svg width="1186" height="512" viewBox="0 0 1186 512" fill="none" xmlns="http://www.w3.org/2000/svg">
<g clip-path="url(#clip0_410_38)">
<path fill-rule="evenodd" clip-rule="evenodd" d="M285.434 163.5H313.206V257.259C326.753 248.866 344.388 244.624 365.096 244.624C385.005 244.624 396.434 239.811 403.061 233.065C409.733 226.274 414.063 214.963 414.063 196.388V163.5H441.835V196.388C441.835 218.74 436.664 238.49 422.872 252.528C409.035 266.612 389.038 272.396 365.096 272.396C345.198 272.396 332.15 277.135 324.383 283.283C316.954 289.165 313.206 297.198 313.206 307.111V348.5H285.434V163.5Z" fill="#1C1C1C"/>
<mask id="mask0_410_38" style="mask-type:alpha" maskUnits="userSpaceOnUse" x="318" y="256" width="124" height="93">
<path d="M426.853 256.469C411.121 272.031 389.203 278.029 364.365 278.029C345.377 278.029 333.847 282.556 327.508 287.574C321.657 292.207 318.688 298.4 318.688 306.532V348.286H441.47V256.317L426.853 256.469Z" fill="black"/>
</mask>
<g mask="url(#mask0_410_38)">
<path fill-rule="evenodd" clip-rule="evenodd" d="M368.846 304.836C362.194 299.068 354.848 288.624 354.499 276.416L382.271 276.05C382.288 276.632 382.524 279.937 387.04 283.853C390.666 286.997 395.144 289.899 400.764 293.54C402.378 294.586 404.086 295.693 405.894 296.884C419.997 306.168 441.47 321.138 441.47 348.404H413.698C413.698 337.666 405.937 330.162 390.622 320.08C389.352 319.243 388.005 318.373 386.612 317.473C380.764 313.695 374.096 309.388 368.846 304.836Z" fill="#1C1C1C" fill-opacity="0.6"/>
</g>
</g>
<path d="M602.851 314V198.447H647.775C655.623 198.447 662.429 199.889 668.195 202.771C673.96 205.654 678.391 209.738 681.488 215.023C684.638 220.309 686.212 226.581 686.212 233.842V234.002C686.212 241.85 684.21 248.71 680.207 254.582C676.256 260.454 670.811 264.565 663.871 266.914L689.736 314H668.996L645.453 269.717C645.239 269.717 645.052 269.717 644.892 269.717C644.785 269.717 644.625 269.717 644.412 269.717H620.789V314H602.851ZM620.789 254.902H646.013C652.9 254.902 658.238 253.114 662.029 249.537C665.819 245.907 667.714 240.782 667.714 234.162V234.002C667.714 227.649 665.712 222.658 661.708 219.027C657.758 215.344 652.339 213.502 645.453 213.502H620.789V254.902ZM737.142 315.682C728.921 315.682 721.82 313.92 715.841 310.396C709.916 306.82 705.351 301.775 702.148 295.262C698.998 288.695 697.423 280.981 697.423 272.119V272.039C697.423 263.284 699.025 255.623 702.228 249.057C705.431 242.437 709.942 237.312 715.761 233.682C721.58 229.998 728.414 228.156 736.261 228.156C744.162 228.156 750.942 229.918 756.601 233.441C762.313 236.911 766.718 241.85 769.814 248.256C772.91 254.609 774.458 262.003 774.458 270.438V276.283H705.992V264.031H766.05L757.482 275.482V268.756C757.482 262.83 756.574 257.919 754.759 254.021C752.998 250.071 750.515 247.135 747.312 245.213C744.162 243.291 740.505 242.33 736.341 242.33C732.231 242.33 728.547 243.344 725.291 245.373C722.034 247.402 719.472 250.391 717.603 254.342C715.735 258.239 714.8 263.044 714.8 268.756V275.482C714.8 280.928 715.708 285.599 717.523 289.496C719.391 293.34 722.034 296.303 725.451 298.385C728.867 300.413 732.898 301.428 737.542 301.428C740.959 301.428 743.975 300.921 746.591 299.906C749.207 298.839 751.369 297.451 753.078 295.742C754.839 293.98 756.067 292.032 756.761 289.896L757.001 289.256H773.498L773.337 290.137C772.643 293.447 771.335 296.623 769.414 299.666C767.492 302.709 764.983 305.458 761.886 307.914C758.843 310.316 755.24 312.212 751.076 313.6C746.912 314.988 742.267 315.682 737.142 315.682ZM788.472 314V198.447H805.849V314H788.472ZM848.451 315.521C842.845 315.521 837.934 314.454 833.716 312.318C829.499 310.183 826.216 307.193 823.867 303.35C821.518 299.506 820.343 295.075 820.343 290.057V289.896C820.343 284.985 821.571 280.768 824.027 277.244C826.483 273.667 830.033 270.838 834.677 268.756C839.375 266.674 845.034 265.446 851.654 265.072L883.525 263.15V275.322L853.976 277.164C848.798 277.484 844.794 278.739 841.964 280.928C839.188 283.063 837.8 285.919 837.8 289.496V289.656C837.8 293.34 839.188 296.249 841.964 298.385C844.794 300.52 848.531 301.588 853.175 301.588C857.233 301.588 860.863 300.76 864.066 299.105C867.322 297.451 869.885 295.182 871.753 292.299C873.622 289.363 874.556 286.079 874.556 282.449V257.385C874.556 252.74 873.115 249.11 870.232 246.494C867.349 243.825 863.212 242.49 857.82 242.49C852.855 242.49 848.851 243.558 845.808 245.693C842.819 247.829 840.95 250.578 840.203 253.941L840.042 254.662H823.707L823.787 253.781C824.214 248.923 825.842 244.572 828.671 240.729C831.501 236.831 835.425 233.762 840.443 231.52C845.461 229.277 851.414 228.156 858.3 228.156C865.187 228.156 871.139 229.304 876.158 231.6C881.176 233.895 885.073 237.125 887.849 241.289C890.625 245.453 892.013 250.338 892.013 255.943V314H874.556V300.707H874.236C872.581 303.75 870.445 306.393 867.83 308.635C865.214 310.824 862.251 312.532 858.941 313.76C855.684 314.934 852.188 315.521 848.451 315.521Z" fill="#1C1C1C"/>
<defs>
<clipPath id="clip0_410_38">
<rect width="156.401" height="185" fill="white" transform="translate(285.799 163.5)"/>
</clipPath>
</defs>
</svg>
